<mxfile host="65bd71144e">
    <diagram id="TVb5kFhwFB6fe20ppimk" name="Page-1">
        <mxGraphModel dx="202" dy="177" grid="1" gridSize="10" guides="1" tooltips="1" connect="1" arrows="1" fold="1" page="0" pageScale="1" pageWidth="850" pageHeight="1100" math="0" shadow="0">
            <root>
                <mxCell id="0"/>
                <mxCell id="1" parent="0"/>
                <mxCell id="40" value="&lt;font color=&quot;#331a00&quot; style=&quot;font-size: 28px;&quot;&gt;&amp;nbsp; k3s&lt;/font&gt;" style="rounded=1;whiteSpace=wrap;html=1;fontSize=28;fillColor=#fad7ac;strokeColor=#b46504;opacity=30;arcSize=4;labelPosition=center;verticalLabelPosition=middle;align=left;verticalAlign=top;" parent="1" vertex="1">
                    <mxGeometry x="240" y="200" width="540" height="340" as="geometry"/>
                </mxCell>
                <mxCell id="23" style="edgeStyle=orthogonalEdgeStyle;html=1;exitX=0.995;exitY=0.63;exitDx=0;exitDy=0;exitPerimeter=0;entryX=0.005;entryY=0.63;entryDx=0;entryDy=0;entryPerimeter=0;dashed=1;fontSize=18;endArrow=none;endFill=0;" parent="1" source="8" target="17" edge="1">
                    <mxGeometry relative="1" as="geometry"/>
                </mxCell>
                <mxCell id="24" style="edgeStyle=orthogonalEdgeStyle;html=1;exitX=0.995;exitY=0.63;exitDx=0;exitDy=0;exitPerimeter=0;entryX=0.005;entryY=0.63;entryDx=0;entryDy=0;entryPerimeter=0;dashed=1;fontSize=18;endArrow=none;endFill=0;" parent="1" source="8" target="18" edge="1">
                    <mxGeometry relative="1" as="geometry"/>
                </mxCell>
                <mxCell id="8" value="FastAPI" style="sketch=0;html=1;dashed=0;whitespace=wrap;fillColor=#2875E2;strokeColor=#ffffff;points=[[0.005,0.63,0],[0.1,0.2,0],[0.9,0.2,0],[0.5,0,0],[0.995,0.63,0],[0.72,0.99,0],[0.5,1,0],[0.28,0.99,0]];verticalLabelPosition=top;align=center;verticalAlign=bottom;shape=mxgraph.kubernetes.icon;prIcon=api;fontSize=18;labelPosition=center;" parent="1" vertex="1">
                    <mxGeometry x="610" y="440" width="50" height="48" as="geometry"/>
                </mxCell>
                <mxCell id="21" style="edgeStyle=orthogonalEdgeStyle;html=1;exitX=0.995;exitY=0.63;exitDx=0;exitDy=0;exitPerimeter=0;entryX=0.005;entryY=0.63;entryDx=0;entryDy=0;entryPerimeter=0;dashed=1;fontSize=18;endArrow=none;endFill=0;" parent="1" source="9" target="15" edge="1">
                    <mxGeometry relative="1" as="geometry"/>
                </mxCell>
                <mxCell id="22" style="edgeStyle=orthogonalEdgeStyle;html=1;exitX=0.995;exitY=0.63;exitDx=0;exitDy=0;exitPerimeter=0;entryX=0.005;entryY=0.63;entryDx=0;entryDy=0;entryPerimeter=0;dashed=1;fontSize=18;endArrow=none;endFill=0;" parent="1" source="9" target="16" edge="1">
                    <mxGeometry relative="1" as="geometry"/>
                </mxCell>
                <mxCell id="9" value="PostgreSQL" style="sketch=0;html=1;dashed=0;whitespace=wrap;fillColor=#2875E2;strokeColor=#ffffff;points=[[0.005,0.63,0],[0.1,0.2,0],[0.9,0.2,0],[0.5,0,0],[0.995,0.63,0],[0.72,0.99,0],[0.5,1,0],[0.28,0.99,0]];verticalLabelPosition=top;align=center;verticalAlign=bottom;shape=mxgraph.kubernetes.icon;prIcon=deploy;fontSize=18;labelPosition=center;" parent="1" vertex="1">
                    <mxGeometry x="610" y="350" width="50" height="48" as="geometry"/>
                </mxCell>
                <mxCell id="19" style="edgeStyle=orthogonalEdgeStyle;html=1;exitX=0.995;exitY=0.63;exitDx=0;exitDy=0;exitPerimeter=0;entryX=0.005;entryY=0.63;entryDx=0;entryDy=0;entryPerimeter=0;fontSize=18;dashed=1;endArrow=none;endFill=0;" parent="1" source="10" target="13" edge="1">
                    <mxGeometry relative="1" as="geometry"/>
                </mxCell>
                <mxCell id="20" style="edgeStyle=orthogonalEdgeStyle;html=1;exitX=0.995;exitY=0.63;exitDx=0;exitDy=0;exitPerimeter=0;entryX=0.005;entryY=0.63;entryDx=0;entryDy=0;entryPerimeter=0;dashed=1;fontSize=18;endArrow=none;endFill=0;" parent="1" source="10" target="14" edge="1">
                    <mxGeometry relative="1" as="geometry"/>
                </mxCell>
                <mxCell id="10" value="React.js" style="sketch=0;html=1;dashed=0;whitespace=wrap;fillColor=#2875E2;strokeColor=#ffffff;points=[[0.005,0.63,0],[0.1,0.2,0],[0.9,0.2,0],[0.5,0,0],[0.995,0.63,0],[0.72,0.99,0],[0.5,1,0],[0.28,0.99,0]];verticalLabelPosition=top;align=center;verticalAlign=bottom;shape=mxgraph.kubernetes.icon;prIcon=deploy;fontSize=18;labelPosition=center;" parent="1" vertex="1">
                    <mxGeometry x="610" y="260" width="50" height="48" as="geometry"/>
                </mxCell>
                <mxCell id="28" style="edgeStyle=none;html=1;exitX=0.995;exitY=0.63;exitDx=0;exitDy=0;exitPerimeter=0;entryX=0.005;entryY=0.63;entryDx=0;entryDy=0;entryPerimeter=0;fontSize=18;endArrow=none;endFill=0;" parent="1" source="11" target="12" edge="1">
                    <mxGeometry relative="1" as="geometry"/>
                </mxCell>
                <mxCell id="11" value="Traefik" style="sketch=0;html=1;dashed=0;whitespace=wrap;fillColor=#2875E2;strokeColor=#ffffff;points=[[0.005,0.63,0],[0.1,0.2,0],[0.9,0.2,0],[0.5,0,0],[0.995,0.63,0],[0.72,0.99,0],[0.5,1,0],[0.28,0.99,0]];verticalLabelPosition=top;align=center;verticalAlign=bottom;shape=mxgraph.kubernetes.icon;prIcon=ing;fontSize=18;labelPosition=center;" parent="1" vertex="1">
                    <mxGeometry x="280" y="350" width="50" height="48" as="geometry"/>
                </mxCell>
                <mxCell id="12" value="Ingress" style="sketch=0;html=1;dashed=0;whitespace=wrap;fillColor=#2875E2;strokeColor=#ffffff;points=[[0.005,0.63,0],[0.1,0.2,0],[0.9,0.2,0],[0.5,0,0],[0.995,0.63,0],[0.72,0.99,0],[0.5,1,0],[0.28,0.99,0]];verticalLabelPosition=top;align=center;verticalAlign=bottom;shape=mxgraph.kubernetes.icon;prIcon=ing;fontSize=18;labelPosition=center;" parent="1" vertex="1">
                    <mxGeometry x="390" y="350" width="50" height="48" as="geometry"/>
                </mxCell>
                <mxCell id="13" value="" style="sketch=0;html=1;dashed=0;whitespace=wrap;fillColor=#2875E2;strokeColor=#ffffff;points=[[0.005,0.63,0],[0.1,0.2,0],[0.9,0.2,0],[0.5,0,0],[0.995,0.63,0],[0.72,0.99,0],[0.5,1,0],[0.28,0.99,0]];verticalLabelPosition=bottom;align=center;verticalAlign=top;shape=mxgraph.kubernetes.icon;prIcon=pod;fontSize=18;" parent="1" vertex="1">
                    <mxGeometry x="710" y="249" width="30" height="30" as="geometry"/>
                </mxCell>
                <mxCell id="14" value="" style="sketch=0;html=1;dashed=0;whitespace=wrap;fillColor=#2875E2;strokeColor=#ffffff;points=[[0.005,0.63,0],[0.1,0.2,0],[0.9,0.2,0],[0.5,0,0],[0.995,0.63,0],[0.72,0.99,0],[0.5,1,0],[0.28,0.99,0]];verticalLabelPosition=bottom;align=center;verticalAlign=top;shape=mxgraph.kubernetes.icon;prIcon=pod;fontSize=18;" parent="1" vertex="1">
                    <mxGeometry x="710" y="289" width="30" height="30" as="geometry"/>
                </mxCell>
                <mxCell id="15" value="" style="sketch=0;html=1;dashed=0;whitespace=wrap;fillColor=#2875E2;strokeColor=#ffffff;points=[[0.005,0.63,0],[0.1,0.2,0],[0.9,0.2,0],[0.5,0,0],[0.995,0.63,0],[0.72,0.99,0],[0.5,1,0],[0.28,0.99,0]];verticalLabelPosition=bottom;align=center;verticalAlign=top;shape=mxgraph.kubernetes.icon;prIcon=pod;fontSize=18;" parent="1" vertex="1">
                    <mxGeometry x="710" y="339" width="30" height="30" as="geometry"/>
                </mxCell>
                <mxCell id="16" value="" style="sketch=0;html=1;dashed=0;whitespace=wrap;fillColor=#2875E2;strokeColor=#ffffff;points=[[0.005,0.63,0],[0.1,0.2,0],[0.9,0.2,0],[0.5,0,0],[0.995,0.63,0],[0.72,0.99,0],[0.5,1,0],[0.28,0.99,0]];verticalLabelPosition=bottom;align=center;verticalAlign=top;shape=mxgraph.kubernetes.icon;prIcon=pod;fontSize=18;" parent="1" vertex="1">
                    <mxGeometry x="710" y="379" width="30" height="30" as="geometry"/>
                </mxCell>
                <mxCell id="17" value="" style="sketch=0;html=1;dashed=0;whitespace=wrap;fillColor=#2875E2;strokeColor=#ffffff;points=[[0.005,0.63,0],[0.1,0.2,0],[0.9,0.2,0],[0.5,0,0],[0.995,0.63,0],[0.72,0.99,0],[0.5,1,0],[0.28,0.99,0]];verticalLabelPosition=bottom;align=center;verticalAlign=top;shape=mxgraph.kubernetes.icon;prIcon=pod;fontSize=18;" parent="1" vertex="1">
                    <mxGeometry x="710" y="429" width="30" height="30" as="geometry"/>
                </mxCell>
                <mxCell id="18" value="" style="sketch=0;html=1;dashed=0;whitespace=wrap;fillColor=#2875E2;strokeColor=#ffffff;points=[[0.005,0.63,0],[0.1,0.2,0],[0.9,0.2,0],[0.5,0,0],[0.995,0.63,0],[0.72,0.99,0],[0.5,1,0],[0.28,0.99,0]];verticalLabelPosition=bottom;align=center;verticalAlign=top;shape=mxgraph.kubernetes.icon;prIcon=pod;fontSize=18;" parent="1" vertex="1">
                    <mxGeometry x="710" y="469" width="30" height="30" as="geometry"/>
                </mxCell>
                <mxCell id="32" style="edgeStyle=none;html=1;exitX=0.995;exitY=0.63;exitDx=0;exitDy=0;exitPerimeter=0;entryX=0.005;entryY=0.63;entryDx=0;entryDy=0;entryPerimeter=0;fontSize=18;endArrow=none;endFill=0;" parent="1" source="29" target="10" edge="1">
                    <mxGeometry relative="1" as="geometry"/>
                </mxCell>
                <mxCell id="35" style="edgeStyle=none;html=1;exitX=0.005;exitY=0.63;exitDx=0;exitDy=0;exitPerimeter=0;entryX=0.995;entryY=0.63;entryDx=0;entryDy=0;entryPerimeter=0;fontSize=18;endArrow=none;endFill=0;" parent="1" source="29" target="12" edge="1">
                    <mxGeometry relative="1" as="geometry"/>
                </mxCell>
                <mxCell id="29" value="" style="sketch=0;html=1;dashed=0;whitespace=wrap;fillColor=#2875E2;strokeColor=#ffffff;points=[[0.005,0.63,0],[0.1,0.2,0],[0.9,0.2,0],[0.5,0,0],[0.995,0.63,0],[0.72,0.99,0],[0.5,1,0],[0.28,0.99,0]];verticalLabelPosition=top;align=center;verticalAlign=bottom;shape=mxgraph.kubernetes.icon;prIcon=svc;fontSize=18;labelPosition=center;" parent="1" vertex="1">
                    <mxGeometry x="500" y="260" width="50" height="48" as="geometry"/>
                </mxCell>
                <mxCell id="33" style="edgeStyle=none;html=1;exitX=0.995;exitY=0.63;exitDx=0;exitDy=0;exitPerimeter=0;entryX=0.005;entryY=0.63;entryDx=0;entryDy=0;entryPerimeter=0;fontSize=18;endArrow=none;endFill=0;" parent="1" source="30" target="9" edge="1">
                    <mxGeometry relative="1" as="geometry"/>
                </mxCell>
                <mxCell id="36" style="edgeStyle=none;html=1;exitX=0.005;exitY=0.63;exitDx=0;exitDy=0;exitPerimeter=0;entryX=0.995;entryY=0.63;entryDx=0;entryDy=0;entryPerimeter=0;fontSize=18;endArrow=none;endFill=0;" parent="1" source="30" target="12" edge="1">
                    <mxGeometry relative="1" as="geometry"/>
                </mxCell>
                <mxCell id="30" value="" style="sketch=0;html=1;dashed=0;whitespace=wrap;fillColor=#2875E2;strokeColor=#ffffff;points=[[0.005,0.63,0],[0.1,0.2,0],[0.9,0.2,0],[0.5,0,0],[0.995,0.63,0],[0.72,0.99,0],[0.5,1,0],[0.28,0.99,0]];verticalLabelPosition=top;align=center;verticalAlign=bottom;shape=mxgraph.kubernetes.icon;prIcon=svc;fontSize=18;labelPosition=center;" parent="1" vertex="1">
                    <mxGeometry x="500" y="350" width="50" height="48" as="geometry"/>
                </mxCell>
                <mxCell id="34" style="edgeStyle=none;html=1;exitX=0.995;exitY=0.63;exitDx=0;exitDy=0;exitPerimeter=0;entryX=0.005;entryY=0.63;entryDx=0;entryDy=0;entryPerimeter=0;fontSize=18;endArrow=none;endFill=0;" parent="1" source="31" target="8" edge="1">
                    <mxGeometry relative="1" as="geometry"/>
                </mxCell>
                <mxCell id="37" style="edgeStyle=none;html=1;exitX=0.005;exitY=0.63;exitDx=0;exitDy=0;exitPerimeter=0;fontSize=18;endArrow=none;endFill=0;entryX=0.995;entryY=0.63;entryDx=0;entryDy=0;entryPerimeter=0;" parent="1" source="31" target="12" edge="1">
                    <mxGeometry relative="1" as="geometry">
                        <mxPoint x="450" y="470" as="targetPoint"/>
                    </mxGeometry>
                </mxCell>
                <mxCell id="31" value="" style="sketch=0;html=1;dashed=0;whitespace=wrap;fillColor=#2875E2;strokeColor=#ffffff;points=[[0.005,0.63,0],[0.1,0.2,0],[0.9,0.2,0],[0.5,0,0],[0.995,0.63,0],[0.72,0.99,0],[0.5,1,0],[0.28,0.99,0]];verticalLabelPosition=top;align=center;verticalAlign=bottom;shape=mxgraph.kubernetes.icon;prIcon=svc;fontSize=18;labelPosition=center;" parent="1" vertex="1">
                    <mxGeometry x="500" y="440" width="50" height="48" as="geometry"/>
                </mxCell>
                <mxCell id="39" style="edgeStyle=none;html=1;exitX=0.995;exitY=0.63;exitDx=0;exitDy=0;exitPerimeter=0;entryX=0.005;entryY=0.63;entryDx=0;entryDy=0;entryPerimeter=0;fontSize=18;endArrow=none;endFill=0;" parent="1" source="38" target="11" edge="1">
                    <mxGeometry relative="1" as="geometry"/>
                </mxCell>
                <mxCell id="38" value="NLB" style="sketch=0;html=1;dashed=0;whitespace=wrap;fillColor=#2875E2;strokeColor=#ffffff;points=[[0.005,0.63,0],[0.1,0.2,0],[0.9,0.2,0],[0.5,0,0],[0.995,0.63,0],[0.72,0.99,0],[0.5,1,0],[0.28,0.99,0]];verticalLabelPosition=top;align=center;verticalAlign=bottom;shape=mxgraph.kubernetes.icon;prIcon=ep;fontSize=18;labelPosition=center;" parent="1" vertex="1">
                    <mxGeometry x="150" y="350" width="50" height="48" as="geometry"/>
                </mxCell>
                <mxCell id="45" style="edgeStyle=none;html=1;exitX=0.995;exitY=0.63;exitDx=0;exitDy=0;exitPerimeter=0;strokeWidth=1;entryX=-0.014;entryY=0.689;entryDx=0;entryDy=0;entryPerimeter=0;" edge="1" parent="1" source="41" target="42">
                    <mxGeometry relative="1" as="geometry">
                        <mxPoint x="259.9999999999999" y="621.75" as="targetPoint"/>
                    </mxGeometry>
                </mxCell>
                <mxCell id="41" value="" style="sketch=0;html=1;dashed=0;whitespace=wrap;fillColor=#2875E2;strokeColor=#ffffff;points=[[0.005,0.63,0],[0.1,0.2,0],[0.9,0.2,0],[0.5,0,0],[0.995,0.63,0],[0.72,0.99,0],[0.5,1,0],[0.28,0.99,0]];verticalLabelPosition=bottom;align=center;verticalAlign=top;shape=mxgraph.kubernetes.icon;prIcon=user" vertex="1" parent="1">
                    <mxGeometry x="180" y="590" width="50" height="50" as="geometry"/>
                </mxCell>
                <mxCell id="44" style="edgeStyle=none;html=1;exitX=0.5;exitY=0;exitDx=0;exitDy=0;entryX=0.148;entryY=1;entryDx=0;entryDy=0;entryPerimeter=0;shape=link;strokeWidth=4;fillColor=#ffe6cc;strokeColor=#d79b00;" edge="1" parent="1" source="42" target="40">
                    <mxGeometry relative="1" as="geometry">
                        <mxPoint x="330" y="550" as="targetPoint"/>
                    </mxGeometry>
                </mxCell>
                <mxCell id="42" value="" style="shape=image;verticalLabelPosition=bottom;labelBackgroundColor=default;verticalAlign=top;aspect=fixed;imageAspect=0;image=data:image/png,iVBORw0KGgoAAAANSUhEUgAAAOEAAADhCAMAAAAJbSJIAAAAY1BMVEU9kM7///88kM4vi8w4js1kpNZZntRvqdhDlNCLuN8miMsuisw2jc37/f72+v2ZwOJQmdLh7Pbt9Pq81eyz0OnV5fPn8PiqyuejxuWCs93a6PScwuNgodXC2e14rtqSvODM3/DuvJMeAAAJ1ElEQVR4nO2d6YKqPAyGteDWIuO+zSje/1WesS1aoCsE2s7h/fMtKvA4kqRpEibTv66J7wvoXSNh/BoJ49f/Q4hJ8rdEcI2QpOhvKSU1wgRN/pZQMhLGrpEwfo2E8WskjF8jYfwaCePXSBi/RsL4NRLGr5Ewfo2E8WskjF8jYfxyJESpu9gnW3zQ8sighGg5d9aGXkjq/kGTZnMrRDfCdDZ11uJ1HSly/6BJ52UghPSA2QOKiyv/SpI+fqUtCLfk9cHkDMb20m5FPnwp0aL2TnighOQIRjednq4ke19lijfPmQ6xd8JrRs+yBuPbPrDIN79Pp34JN6/jpXMovtsCZ5/LwbPn6396Jczx63NZAcN3nAl8GZ7x375Xwie7De8QfM85/qBk+LEtX/BK+E2/c7zrznfffPhQgq+nz0teCenJ02Vnvv3y4xNQRlaVr8wrYQbi7w8iX0KK2k/CJyH394cueOuz4NPTJPnO6+/wSXhIXh8jt/Z8+XdSCV8uEs/qk5D5e2x+o4qvqPChszRy8ElIl07pT0u+3UoMX8hS9WP3SLhj/v6rFd9v+JkI4dlyr3ynR0Lu758t+LaLRvgZIuFXW3//Cq8/Z8Vz/XfkkfCH3oYbV75KeP0JP5XyR7imyaLs6sZXC68XZlfjj/BGDY2bv3/+COGnGF4HScj8Pba5SK5KeJ1VwusgCa/M0Fi/fy/wpRle2Voof4Q03Wf9mQMiH/eQZF+N8FMpb4Tc339bvfmMxPCaXOz5PBLerf19fiHV8NPlNB4Jmb8nxr/GK7v7PuvvT9V5reWNkPp7ZPL3uwJnH/tJNurwUylfhNzfr7RvOl0r4eemVcrKFyHz90T3m5Nkd2MiPJv8fS27+9NmCeKV8JGJx29Ikd1tI1+E1H6kC/mLteyuRXitkSdC5u+Ti+y1+9w9vA6PUO3vxezu7wVYhtfhERbsNmxEz2J291cZwN6pJ8K5zN9XsrtMpJ0P7ItwaR0Qr+mBkoq/zy+ZZEc6bRXH9EQ4yay3Oo/M3wvXnn8RRXEBIppU4cCEE6IPwj7i/v5tRV7FBepDa9K9QxNOsOW3Tf19mvL/qoSfCkbXNVNfhAjbOWcWdjN/Xwk/NYyZfFtiYMIJQjbWhvv715+lEn7qGZP0uw0jMOEks9lo2TN/f6uGnxaM2CE/0xfhhFhUVhTU0KR3IftpJ5QkhSsjOKGNteF1g5a1Z9VLcsgjwhOyF5ExybsmFl+UhpGsXIJVQEK0zPg/DQbhSDoATlg5if2CAzJqW1zo/TXJDAEq8/ed5LCogo28Z+zaiX5fd+FgPzWMlgtjWMI1r8zF2hWBZQ22mXFmwwi8etpi+o6UaGzBqeNtKJzRJoEDvT68Y/bvGmuzByO02OPuYQVcsOvPFEmmX626GxoXRvg1/ozZEaLcVbLrE7CXIRkOT5gj9ias+GrXGApN2LDRJAJ6yNOU1iaRW5uu/v5zdUJWBw1bE7UvrY30jBeo2zC5i5lHZSKgl1zbilsbaeXoAuo2TAqaXRVq26SJgH6yiT/c2shy2hMoQpaM3G9ERkkioB/CnIctEmtzgjM0CVsq3pdCkUaS1WtMe8oI30pr01jLAfr796aAuNORJrhaJ9xXzvvArU1jGxvQ3wuFHOJuVS0R0FtWn1ubpG5tNnBtqJUT1grCPomA/vYt5sza4Kp9g/P3LydYOfSxwvjuSeiPMOdFFLgS/oP5e3ro2urpOJP0lfS493Tk1iYTrQ2Yv3+p2bhYKz59nPrdXSutjbhhA+bvKYJkAdNg1J6x6/7hlf3BRGuDIAnlcWGlSDrT5/U675DyhRJ+R4xw/p4dWB7cm7d6SnUmzJOatYFc30+qO5AV7a7E6obvvst95Ldiyl3wCiLN9pGmaqzScKIUwD7+mSGW28N2XfLW0nby7wpiZISoVHhwa0O/7Rz2NjR1a+SFbmv5JZBajI1gbZ6wt6G5wzb/0m//gBDu2Dno9jCov3/J3CW91gbCMPU0T25tUA7r7+lBzeUfQ1QMXXhS4wfW39MrNJdRD1IT9WA+IgPZkqnKXAo/TNUXdxLQf8GJqrxxeMJdmw1tK5mL6Qaq3HtCO8L3JRL1SQclnH5De8JSxlbwwaove7AyVMb2vsEI18AhaSnjSIbhKmhPruVBdjKO1RiwRvjej7VRrIJ9EE6/erE2ylWwB8KyGAVWht6pYQl7sTamG3HYWv0T7mG0JNFX8g3cjQBrbdi1G4LvofstCshiGvajN8wOGbyjZAYW2yCyY/3g+rLkwQnzCdStiPdlT7+22nP4rqAtkLV5lVvzOUza4jYPfU97EGtDM7BbTZOfR8Jye7iTeBYd6Ro1/RGWxShdxHdC2AzbVHcyL4R55xracu/8Yh6Q4qf/8NbR2rx3JI/moXaeOiwPnayNUMPC5ofoBhX56uW+dlhmiHVIdA9WuwXlbS7GvL21EevkzQPDvBHmWVtrU+l14EPfNKtgfzOGji1vxWq/yo6ZGs0q2OO8tnbWJkXVKJRunummwHidfdnC2jS6VGllgG4LyusM2o37rYjrrm9vmsbkd9q1c94maXi+k2mCJujEgWLlpmLmGNrIpiwiwyoYssMydX60uStgs+S43H5VT7aD75LtUdImFdMqOCZCeaPR7dP6HjthIl/osqlh6lUwKGEfD8RJy1Mq24tn+uAblHDZi0wt4oZVsN/nW9hozlvhlMG1YRUcPCGvxdHE1mv9Kjh0wlr1plT6VXDghPUKXKkK7So4bMJ3h5g2q33XPuokbEKe6iD6AUN8FawoxAyasNB1agpiW1CKWzVkQn23rSBWH4/l92rAhHxLHOnmMzBpV8HhEtrN2KA66eZKh0vIC+FspjJNdXvBwRKWpdNWB2XzXrPgnsKik1D+bqGz5pk8gRLusk8Lg4VumucoBkrYaHoziPbgyeephEm4ajYu6jVT7wUHSahsdVfqwny+bBUcIuFWOa5AKb4FJftRB0i4XuoH3MiUsxtRtgoOkLAcUuT0qCu2CpZFsOERfru4+rfYsElZIWZwhNzVo4nbrFL1Kjg0wne3ouMkdj70VRLEhka4cXT1byHVKjgwwnJGgeOTvKZTdSFmWIQHi9yhQspVcFCEN9msEEuxQsysWYgZEmGOlNOlLMRuxOY1hESomxBm1oJNQR9o1lcrmWdKasUn2TcWlOEQ3m1zhwqp9oKDIdyxAYEobf2UbvoTaGaPQWdBLzqILyjSzaPTERBSHBiC8Pf776Lyl9BxO7xxEYAzhmLUSBi/RsL4NRLGr5Ewfo2E8WskjF8jYfwaCePXSBi/RsL4NRLGr5Ewfo2E8atBSFL0t5SSGiEmzq2+YYvgGuHf1UgYv0bC+DUSxq9/neXFwSIJ7PkAAAAASUVORK5CYII=;" vertex="1" parent="1">
                    <mxGeometry x="290" y="580" width="60" height="60" as="geometry"/>
                </mxCell>
            </root>
        </mxGraphModel>
    </diagram>
</mxfile>